# xmcd
#
# Track frame offsets:
#	150
#	22938
#	43016
#	64053
#	90468
#	119193
#	136689
#	158563
#	177477
#	208131
#	219775
#	243056
#	275422
#
# Disc length: 3900 seconds
# Revision: 0
# Processed by: cddbd v1.5.2PL0 Copyright (c) Steve Scherf et al.
# Submitted via: dBpowerAMP V12.0
#
DISCID=ae0f3a0d
DTITLE=Casualties of Cool - Casualties of Cool [CD2]
DYEAR=2014
DGENRE=Blues Rock
TTITLE0=Ghost Wives
TTITLE1=Drained
TTITLE2=Dig For Gold
TTITLE3=Dead Eyes
TTITLE4=Drench
TTITLE5=Mend
TTITLE6=Where You've Been
TTITLE7=Gone is Gone
TTITLE8=Fight
TTITLE9=Glass World
TTITLE10=Aquarius
TTITLE11=Perspective
TTITLE12=Moonshine
EXTD=
EXTT0=
EXTT1=
EXTT2=
EXTT3=
EXTT4=
EXTT5=
EXTT6=
EXTT7=
EXTT8=
EXTT9=
EXTT10=
EXTT11=
EXTT12=
PLAYORDER=
